<svg xmlns="http://www.w3.org/2000/svg" width="153.704" height="27.697" viewBox="0 0 153.704 27.697">
    <defs>
        <style>
            .cls-1{fill:#fff}
        </style>
    </defs>
    <g id="logo" transform="translate(-99 -38)" fill="#000">
        <path id="Path_27" d="M-7586.784 333h17.134l-1.751 3.123h-10.15l1.63 2.732h6.893l-1.782 3.122h-3.366l3.429 5.791 8.5-14.768h3.533l-10.551 17.979h-3.071z" class="cls-1" transform="translate(7685.784 -295)"/>
        <path id="Rectangle_19" d="M0 0H3.008V8.021H0z" class="cls-1" transform="translate(109.473 55.169)"/>
        <rect id="Rectangle_20" width="3.008" height="12.032" class="cls-1" rx="1.504" transform="rotate(-90 85.303 -19.606)"/>
        <path id="Path_145" d="M3.984 0H2.256v-16.992H12.5v1.536H3.984v5.9H11.9v1.516H3.984zm10.344 0h-1.9l7.344-16.992h1.68L28.752 0h-1.92L24.96-4.464h-8.784zm2.5-6.048h7.488l-3.744-9.024zM43.3-2.52h.048v-14.472h1.728V0h-2.16l-9.892-14.616h-.048V0h-1.728v-16.992h2.16zm19.172-11.424A6.189 6.189 0 0 0 60.36-15.4a7.175 7.175 0 0 0-2.808-.516 6.972 6.972 0 0 0-2.94.6 6.665 6.665 0 0 0-2.22 1.62 7.243 7.243 0 0 0-1.4 2.364A8.173 8.173 0 0 0 50.5-8.5a8.173 8.173 0 0 0 .492 2.832 7.106 7.106 0 0 0 1.4 2.352 6.745 6.745 0 0 0 2.22 1.616 6.972 6.972 0 0 0 2.94.6 10.481 10.481 0 0 0 2.64-.312 6.717 6.717 0 0 0 1.944-.792v-5.16h-3.96V-8.88h5.688v7.656a11.016 11.016 0 0 1-3 1.248 13.512 13.512 0 0 1-3.336.408 9.239 9.239 0 0 1-3.552-.672 8.4 8.4 0 0 1-2.808-1.86 8.474 8.474 0 0 1-1.836-2.82 9.452 9.452 0 0 1-.66-3.576 9.3 9.3 0 0 1 .672-3.576 8.534 8.534 0 0 1 1.86-2.82 8.564 8.564 0 0 1 2.808-1.86 9.086 9.086 0 0 1 3.516-.672 9.6 9.6 0 0 1 3.552.6 7.558 7.558 0 0 1 2.592 1.68zm23.016 5.376a9.476 9.476 0 0 1-.7 3.684 8.388 8.388 0 0 1-1.928 2.856 8.6 8.6 0 0 1-2.94 1.836 10.313 10.313 0 0 1-3.7.648 10.217 10.217 0 0 1-3.68-.648 8.62 8.62 0 0 1-2.928-1.836 8.388 8.388 0 0 1-1.932-2.856 9.476 9.476 0 0 1-.7-3.684 9.363 9.363 0 0 1 .7-3.684 8.066 8.066 0 0 1 1.932-2.8 8.607 8.607 0 0 1 2.928-1.776 10.568 10.568 0 0 1 3.684-.624 10.669 10.669 0 0 1 3.7.624 8.585 8.585 0 0 1 2.94 1.776 8.066 8.066 0 0 1 1.932 2.8 9.363 9.363 0 0 1 .692 3.684zm-4.392 0a5.831 5.831 0 0 0-.36-2.064 4.918 4.918 0 0 0-1-1.644 4.6 4.6 0 0 0-1.536-1.08 4.863 4.863 0 0 0-1.98-.4 4.779 4.779 0 0 0-1.968.4 4.764 4.764 0 0 0-1.536 1.08 4.671 4.671 0 0 0-1 1.644 6.011 6.011 0 0 0-.348 2.064 6.071 6.071 0 0 0 .36 2.124 5.03 5.03 0 0 0 1 1.668 4.548 4.548 0 0 0 1.524 1.092 4.779 4.779 0 0 0 1.968.4 4.779 4.779 0 0 0 1.968-.4 4.678 4.678 0 0 0 1.536-1.092 4.925 4.925 0 0 0 1.008-1.668 6.071 6.071 0 0 0 .368-2.124zm21.5 2.16a7.313 7.313 0 0 1-.516 2.8 6.078 6.078 0 0 1-1.476 2.16 6.807 6.807 0 0 1-2.316 1.4 8.589 8.589 0 0 1-3.012.5 8.563 8.563 0 0 1-3.024-.5 6.569 6.569 0 0 1-2.28-1.4 6.1 6.1 0 0 1-1.44-2.16 7.466 7.466 0 0 1-.5-2.8v-10.584h4.08v10.248a4.74 4.74 0 0 0 .18 1.32 3.389 3.389 0 0 0 .552 1.116 2.589 2.589 0 0 0 .984.78 3.445 3.445 0 0 0 1.472.288 3.445 3.445 0 0 0 1.476-.288 2.693 2.693 0 0 0 1-.78 3.105 3.105 0 0 0 .552-1.116 5.058 5.058 0 0 0 .168-1.32v-10.248h4.1zm11.3-7.08V0h-4.1v-13.488H105v-3.5h13.7v3.5z" class="cls-1" transform="translate(134 61)"/>
    </g>
</svg>
